<svg width="26" height="26" xmlns="http://www.w3.org/2000/svg">
 <!-- Created with Method Draw - http://github.com/duopixel/Method-Draw/ -->
 <g>
  <title>background</title>
  <rect fill="none" id="canvas_background" height="28" width="28" y="-1" x="-1"/>
  <g display="none" overflow="visible" y="0" x="0" height="100%" width="100%" id="canvasGrid">
   <rect fill="url(#gridpattern)" stroke-width="0" y="0" x="0" height="100%" width="100%"/>
  </g>
 </g>
 <g>
  <title>Layer 1</title>
  <rect id="svg_1" height="4" width="4" y="0" x="0" stroke-width="0" stroke="#fff" fill="#000"/>
  <rect id="svg_2" height="2" width="4" y="0" x="4" stroke-width="0" stroke="#fff" fill="#000"/>
  <rect id="svg_3" height="4" width="2" y="4" x="0" stroke-width="0" stroke="#fff" fill="#000"/>
  <rect id="svg_4" height="4" width="4" y="22" x="0" stroke-width="0" stroke="#fff" fill="#000"/>
  <rect id="svg_5" height="2" width="4" y="24" x="4" stroke-width="0" stroke="#fff" fill="#000"/>
  <rect id="svg_6" height="4" width="2" y="18" x="0" stroke-width="0" stroke="#fff" fill="#000"/>
  <rect id="svg_7" height="4" width="4" y="22" x="22" stroke-width="0" stroke="#fff" fill="#000"/>
  <rect id="svg_8" height="2" width="4" y="24" x="18" stroke-width="0" stroke="#fff" fill="#000"/>
  <rect id="svg_9" height="4" width="2" y="18" x="24" stroke-width="0" stroke="#fff" fill="#000"/>
  <rect id="svg_10" height="4" width="4" y="0" x="22" stroke-width="0" stroke="#fff" fill="#000"/>
  <rect id="svg_11" height="2" width="4" y="0" x="18" stroke-width="0" stroke="#fff" fill="#000"/>
  <rect id="svg_12" height="4" width="2" y="4" x="24" stroke-width="0" stroke="#fff" fill="#000"/>
  <rect id="svg_13" height="2" width="2" y="4" x="4" stroke-width="0" stroke="#fff" fill="#000"/>
  <rect id="svg_14" height="0.03125" width="0.3125" y="0.16748" x="40.328125" stroke-width="0" stroke="#fff" fill="#000"/>
  <rect id="svg_15" height="2" width="2" y="6" x="6" stroke-width="0" stroke="#fff" fill="#000"/>
  <rect id="svg_16" height="2" width="2" y="8" x="8" stroke-width="0" stroke="#fff" fill="#000"/>
  <rect id="svg_17" height="2" width="2" y="12" x="12" stroke-width="0" stroke="#fff" fill="#000"/>
  <rect id="svg_18" height="2" width="2" y="10" x="10" stroke-width="0" stroke="#fff" fill="#000"/>
  <rect id="svg_19" height="2" width="2" y="14" x="14" stroke-width="0" stroke="#fff" fill="#000"/>
  <rect id="svg_20" height="2" width="2" y="16" x="16" stroke-width="0" stroke="#fff" fill="#000"/>
  <rect id="svg_21" height="2" width="2" y="18" x="18" stroke-width="0" stroke="#fff" fill="#000"/>
  <rect id="svg_22" height="2" width="2" y="20" x="20" stroke-width="0" stroke="#fff" fill="#000"/>
  <rect id="svg_23" height="2" width="2" y="10" x="14" stroke-width="0" stroke="#fff" fill="#000"/>
  <rect id="svg_24" height="2" width="2" y="14" x="10" stroke-width="0" stroke="#fff" fill="#000"/>
  <rect id="svg_25" height="2" width="2" y="20" x="4" stroke-width="0" stroke="#fff" fill="#000"/>
  <rect id="svg_26" height="2" width="2" y="18" x="6" stroke-width="0" stroke="#fff" fill="#000"/>
  <rect id="svg_27" height="2" width="2" y="16" x="8" stroke-width="0" stroke="#fff" fill="#000"/>
  <rect id="svg_28" height="2" width="2" y="8" x="16" stroke-width="0" stroke="#fff" fill="#000"/>
  <rect id="svg_29" height="2" width="2" y="6" x="18" stroke-width="0" stroke="#fff" fill="#000"/>
  <rect id="svg_30" height="2" width="2" y="4" x="20" stroke-width="0" stroke="#fff" fill="#000"/>
 </g>
</svg>