<svg width="15" height="15" xmlns="http://www.w3.org/2000/svg">
 <!-- Created with Method Draw - http://github.com/duopixel/Method-Draw/ -->

 <g>
  <title>background</title>
  <rect x="-1" y="-1" width="2.46875" height="2.46875" id="canvas_background" fill="none"/>
 </g>
 <g>
  <title>Layer 1</title>
  <rect fill="#000000" stroke="#fff" stroke-width="0" stroke-opacity="null" x="0" y="7" width="15" height="1" id="svg_1"/>
  <rect fill="#000000" stroke="#fff" stroke-width="0" stroke-opacity="null" x="7" y="0" width="1" height="15" id="svg_2"/>
  <rect fill="#ff0000" stroke="#fff" stroke-width="0" stroke-opacity="null" width="2" height="1" id="svg_3"/>
  <rect fill="#ff0000" stroke="#fff" stroke-width="0" stroke-opacity="null" x="1" y="1" width="2" height="1" id="svg_4"/>
  <rect fill="#ff0000" stroke="#fff" stroke-width="0" stroke-opacity="null" x="2" y="2" width="2" height="1" id="svg_5"/>
  <rect fill="#000000" stroke="#fff" stroke-width="0" stroke-opacity="null" x="3" y="3" width="9" height="9" id="svg_6"/>
  <rect fill="#000000" stroke="#fff" stroke-width="0" stroke-opacity="null" x="4" y="2" width="7" height="11" id="svg_7"/>
  <rect fill="#000000" stroke="#fff" stroke-width="0" stroke-opacity="null" x="2" y="4" width="11" height="7" id="svg_8"/>
  <rect fill="#ff0000" stroke="#fff" stroke-width="0" stroke-opacity="null" x="11" y="2" width="2" height="1" id="svg_9"/>
  <rect fill="#ff0000" stroke="#fff" stroke-width="0" stroke-opacity="null" x="11" y="12" width="2" height="1" id="svg_10"/>
  <rect fill="#ff0000" stroke="#fff" stroke-width="0" stroke-opacity="null" x="2" y="12" width="2" height="1" id="svg_11"/>
  <rect fill="#ff0000" stroke="#fff" stroke-width="0" stroke-opacity="null" x="1" y="13" width="2" height="1" id="svg_12"/>
  <rect fill="#ff0000" stroke="#fff" stroke-width="0" stroke-opacity="null" y="14" width="2" height="1" id="svg_13"/>
  <rect fill="#ff0000" stroke="#fff" stroke-width="0" stroke-opacity="null" x="12" y="1" width="2" height="1" id="svg_14"/>
  <rect fill="#ff0000" stroke="#fff" stroke-width="0" stroke-opacity="null" x="13" y="0" width="2" height="1" id="svg_15"/>
  <rect fill="#ff0000" stroke="#fff" stroke-width="0" stroke-opacity="null" x="13" y="14" width="2" height="1" id="svg_16"/>
  <rect fill="#ff0000" stroke="#fff" stroke-width="0" stroke-opacity="null" x="12" y="13" width="2" height="1" id="svg_17"/>
  <rect fill="#ffffff" stroke="#fff" stroke-width="0" stroke-opacity="null" x="4" y="4" width="2" height="2" id="svg_18"/>
  <rect fill="#ff0000" stroke="#fff" stroke-width="0" stroke-opacity="null" x="3" y="3" width="2" height="1" id="svg_19"/>
  <rect fill="#ff0000" stroke="#fff" stroke-width="0" stroke-opacity="null" x="5" y="5" width="2" height="1" id="svg_20"/>
  <rect fill="#ff0000" stroke="#fff" stroke-width="0" stroke-opacity="null" x="4" y="4" width="2" height="1" id="svg_21"/>
  <rect fill="#ff0000" stroke="#fff" stroke-width="0" stroke-opacity="null" x="6" y="6" width="3" height="3" id="svg_22"/>
  <rect fill="#ff0000" stroke="#fff" stroke-width="0" stroke-opacity="null" x="8" y="9" width="2" height="1" id="svg_25"/>
  <rect fill="#ff0000" stroke="#fff" stroke-width="0" stroke-opacity="null" x="9" y="10" width="2" height="1" id="svg_26"/>
  <rect fill="#ff0000" stroke="#fff" stroke-width="0" stroke-opacity="null" x="10" y="11" width="2" height="1" id="svg_27"/>
  <rect fill="#ff0000" stroke="#fff" stroke-width="0" stroke-opacity="null" x="3" y="11" width="2" height="1" id="svg_28"/>
  <rect fill="#ff0000" stroke="#fff" stroke-width="0" stroke-opacity="null" x="4" y="10" width="2" height="1" id="svg_29"/>
  <rect fill="#ff0000" stroke="#fff" stroke-width="0" stroke-opacity="null" x="5" y="9" width="2" height="1" id="svg_30"/>
  <rect fill="#ff0000" stroke="#fff" stroke-width="0" stroke-opacity="null" x="8" y="5" width="2" height="1" id="svg_33"/>
  <rect fill="#ff0000" stroke="#fff" stroke-width="0" stroke-opacity="null" x="9" y="4" width="2" height="1" id="svg_34"/>
  <rect fill="#ff0000" stroke="#fff" stroke-width="0" stroke-opacity="null" x="10" y="3" width="2" height="1" id="svg_35"/>
 </g>
</svg>