<svg width="15" height="15" xmlns="http://www.w3.org/2000/svg">
 <!-- Created with Method Draw - http://github.com/duopixel/Method-Draw/ -->
 <g>
  <title>background</title>
  <rect fill="none" id="canvas_background" height="17" width="17" y="-1" x="-1"/>
 </g>
 <g>
  <title>Layer 1</title>
  <rect id="svg_1" height="1" width="15" y="7" x="0" stroke-opacity="null" stroke-width="0" stroke="#fff" fill="#000000"/>
  <rect id="svg_2" height="15" width="1" y="0" x="7" stroke-opacity="null" stroke-width="0" stroke="#fff" fill="#000000"/>
  <rect id="svg_3" height="1" width="1" y="0" x="0" stroke-opacity="null" stroke-width="0" stroke="#fff" fill="#000000"/>
  <rect id="svg_4" height="1" width="1" y="1" x="1" stroke-opacity="null" stroke-width="0" stroke="#fff" fill="#000000"/>
  <rect id="svg_5" height="1" width="1" y="2" x="2" stroke-opacity="null" stroke-width="0" stroke="#fff" fill="#000000"/>
  <rect id="svg_6" height="9" width="9" y="3" x="3" stroke-opacity="null" stroke-width="0" stroke="#fff" fill="#000000"/>
  <rect id="svg_7" height="11" width="7" y="2" x="4" stroke-opacity="null" stroke-width="0" stroke="#fff" fill="#000000"/>
  <rect id="svg_8" height="7" width="11" y="4" x="2" stroke-opacity="null" stroke-width="0" stroke="#fff" fill="#000000"/>
  <rect id="svg_9" height="1" width="1" y="2" x="12" stroke-opacity="null" stroke-width="0" stroke="#fff" fill="#000000"/>
  <rect id="svg_10" height="1" width="1" y="12" x="12" stroke-opacity="null" stroke-width="0" stroke="#fff" fill="#000000"/>
  <rect id="svg_11" height="1" width="1" y="12" x="2" stroke-opacity="null" stroke-width="0" stroke="#fff" fill="#000000"/>
  <rect id="svg_12" height="1" width="1" y="13" x="1" stroke-opacity="null" stroke-width="0" stroke="#fff" fill="#000000"/>
  <rect id="svg_13" height="1" width="1" y="14" x="0" stroke-opacity="null" stroke-width="0" stroke="#fff" fill="#000000"/>
  <rect id="svg_14" height="1" width="1" y="1" x="13" stroke-opacity="null" stroke-width="0" stroke="#fff" fill="#000000"/>
  <rect id="svg_15" height="1" width="1" y="0" x="14" stroke-opacity="null" stroke-width="0" stroke="#fff" fill="#000000"/>
  <rect id="svg_16" height="1" width="1" y="14" x="14" stroke-opacity="null" stroke-width="0" stroke="#fff" fill="#000000"/>
  <rect id="svg_17" height="1" width="1" y="13" x="13" stroke-opacity="null" stroke-width="0" stroke="#fff" fill="#000000"/>
  <rect id="svg_18" height="2" width="2" y="4" x="4" stroke-opacity="null" stroke-width="0" stroke="#fff" fill="#ffffff"/>
 </g>
</svg>