<svg width="18" height="18" xmlns="http://www.w3.org/2000/svg">
 <!-- Created with Method Draw - http://github.com/duopixel/Method-Draw/ -->
 <g>
  <title>background</title>
  <rect fill="none" id="canvas_background" height="20" width="20" y="-1" x="-1"/>
 </g>
 <g>
  <title>Layer 1</title>
  <rect id="svg_1" height="2" width="1" y="4.03125" x="1.03125" stroke-opacity="null" stroke-width="0" stroke="#fff" fill="#000000"/>
  <rect id="svg_2" height="1" width="1" y="3.03125" x="2.03125" stroke-opacity="null" stroke-width="0" stroke="#fff" fill="#000000"/>
  <rect id="svg_3" height="1" width="1" y="2.03125" x="3.03125" stroke-opacity="null" stroke-width="0" stroke="#fff" fill="#000000"/>
  <rect id="svg_4" height="1" width="2" y="1.03125" x="4.03125" stroke-opacity="null" stroke-width="0" stroke="#fff" fill="#000000"/>
  <rect id="svg_5" height="1" width="6" y="0.03125" x="6.03125" stroke-opacity="null" stroke-width="0" stroke="#fff" fill="#000000"/>
  <rect id="svg_6" height="6" width="1" y="6.03125" x="0.03125" stroke-opacity="null" stroke-width="0" stroke="#fff" fill="#000000"/>
  <rect id="svg_7" height="2" width="1" y="12.03125" x="1.03125" stroke-opacity="null" stroke-width="0" stroke="#fff" fill="#000000"/>
  <rect id="svg_8" height="1" width="1" y="14.03125" x="2.03125" stroke-opacity="null" stroke-width="0" stroke="#fff" fill="#000000"/>
  <rect id="svg_9" height="1" width="1" y="15.03125" x="3.03125" stroke-opacity="null" stroke-width="0" stroke="#fff" fill="#000000"/>
  <rect id="svg_10" height="1" width="2" y="16.03125" x="4.03125" stroke-opacity="null" stroke-width="0" stroke="#fff" fill="#000000"/>
  <rect id="svg_11" height="1" width="6" y="17.03125" x="6.03125" stroke-opacity="null" stroke-width="0" stroke="#fff" fill="#000000"/>
  <rect id="svg_12" height="1" width="2" y="16.03125" x="12.03125" stroke-opacity="null" stroke-width="0" stroke="#fff" fill="#000000"/>
  <rect id="svg_13" height="1" width="1" y="15.03125" x="14.03125" stroke-opacity="null" stroke-width="0" stroke="#fff" fill="#000000"/>
  <rect id="svg_14" height="1" width="1" y="14.03125" x="15.03125" stroke-opacity="null" stroke-width="0" stroke="#fff" fill="#000000"/>
  <rect id="svg_15" height="2" width="1" y="12.03125" x="16.03125" stroke-opacity="null" stroke-width="0" stroke="#fff" fill="#000000"/>
  <rect id="svg_16" height="6" width="1" y="6.03125" x="17" stroke-opacity="null" stroke-width="0" stroke="#fff" fill="#000000"/>
  <rect id="svg_17" height="2" width="1" y="4.03125" x="16.03125" stroke-opacity="null" stroke-width="0" stroke="#fff" fill="#000000"/>
  <rect id="svg_18" height="1" width="1" y="3.03125" x="15.03125" stroke-opacity="null" stroke-width="0" stroke="#fff" fill="#000000"/>
  <rect id="svg_19" height="1" width="1" y="2.03125" x="14.03125" stroke-opacity="null" stroke-width="0" stroke="#fff" fill="#000000"/>
  <rect id="svg_20" height="1" width="2" y="1.03125" x="12.03125" stroke-opacity="null" stroke-width="0" stroke="#fff" fill="#000000"/>
  <rect id="svg_26" height="2" width="2" y="5" x="11" stroke-opacity="null" stroke-width="0" stroke="#fff" fill="#ffff00"/>
  <rect id="svg_27" height="2" width="2" y="5" x="5" stroke-opacity="null" stroke-width="0" stroke="#fff" fill="#ffff00"/>
  <rect id="svg_28" height="16" width="6" y="1" x="6" stroke-opacity="null" stroke-width="0" stroke="#fff" fill="#fff200"/>
  <rect id="svg_29" height="6" width="4" y="5" x="7" stroke-opacity="null" stroke-width="0" stroke="#fff" fill="#fff200"/>
  <rect id="svg_30" height="4" width="6" y="7" x="11" stroke-opacity="null" stroke-width="0" stroke="#fff" fill="#fff200"/>
  <rect id="svg_31" height="6" width="16" y="6" x="1" stroke-opacity="null" stroke-width="0" stroke="#fff" fill="#fff200"/>
  <rect id="svg_32" height="3" width="6" y="14" x="6" stroke-opacity="null" stroke-width="0" stroke="#fff" fill="#fff200"/>
  <rect id="svg_33" height="3" width="2" y="13" x="12" stroke-opacity="null" stroke-width="0" stroke="#fff" fill="#fff200"/>
  <rect id="svg_34" height="3" width="2" y="13" x="4" stroke-opacity="null" stroke-width="0" stroke="#fff" fill="#fff200"/>
  <rect id="svg_35" height="14" width="10" y="2" x="4" stroke-opacity="null" stroke-width="0" stroke="#fff" fill="#fff200"/>
  <rect id="svg_36" height="3" width="2" y="2" x="12" stroke-opacity="null" stroke-width="0" stroke="#fff" fill="#fff200"/>
  <rect id="svg_37" height="3" width="2" y="4" x="14" stroke-opacity="null" stroke-width="0" stroke="#fff" fill="#fff200"/>
  <rect id="svg_38" height="10" width="14" y="4" x="2" stroke-opacity="null" stroke-width="0" stroke="#fff" fill="#fff200"/>
  <rect id="svg_39" height="3" width="2" y="11" x="2" stroke-opacity="null" stroke-width="0" stroke="#fff" fill="#fff200"/>
  <rect id="svg_40" height="3" width="2" y="11" x="14" stroke-opacity="null" stroke-width="0" stroke="#fff" fill="#fff200"/>
  <rect id="svg_42" height="3" width="6" y="11" x="6" stroke-opacity="null" stroke-width="0" stroke="#fff" fill="#fff200"/>
  <rect id="svg_43" height="2" width="1" y="5" x="4" stroke-opacity="null" stroke-width="0" stroke="#fff" fill="#ffff00"/>
  <rect id="svg_44" height="2" width="1" y="5" x="13" stroke-opacity="null" stroke-width="0" stroke="#fff" fill="#ffff00"/>
  <rect id="svg_45" height="12" width="12" y="3" x="3" stroke-opacity="null" stroke-width="0" stroke="#fff" fill="#fff200"/>
  <rect id="svg_46" height="1" width="1" y="3" x="14" stroke-opacity="null" stroke-width="0" stroke="#fff" fill="#fff200"/>
  <rect id="svg_47" height="1" width="1" y="6" x="16" stroke-opacity="null" stroke-width="0" stroke="#fff" fill="#fff200"/>
  <rect id="svg_48" height="1" width="1" y="11" x="16" stroke-opacity="null" stroke-width="0" stroke="#fff" fill="#fff200"/>
  <rect id="svg_49" height="1" width="1" y="11" x="1" stroke-opacity="null" stroke-width="0" stroke="#fff" fill="#ffff00"/>
  <rect id="svg_50" height="1" width="1" y="6" x="1" stroke-opacity="null" stroke-width="0" stroke="#fff" fill="#fff200"/>
  <rect id="svg_51" height="1" width="2" y="11" x="4" stroke-opacity="null" stroke-width="0" stroke="#fff" fill="#fff200"/>
  <rect id="svg_52" height="1" width="2" y="11" x="12" stroke-opacity="null" stroke-width="0" stroke="#fff" fill="#fff200"/>
  <rect id="svg_53" height="1" width="2" y="12" x="12" stroke-opacity="null" stroke-width="0" stroke="#fff" fill="#fff200"/>
  <rect id="svg_54" height="1" width="2" y="12" x="4" stroke-opacity="null" stroke-width="0" stroke="#fff" fill="#fff200"/>
  <rect id="svg_55" height="1" width="1" y="14" x="3" stroke-opacity="null" stroke-width="0" stroke="#fff" fill="#fff200"/>
  <rect id="svg_56" height="1" width="1" y="14" x="14" stroke-opacity="null" stroke-width="0" stroke="#fff" fill="#fff200"/>
  <rect id="svg_73" height="1" width="1" y="5" x="4" stroke-opacity="null" stroke-width="0" stroke="#fff" fill="#000000"/>
  <rect id="svg_74" height="1" width="1" y="6" x="5" stroke-opacity="null" stroke-width="0" stroke="#fff" fill="#000000"/>
  <rect id="svg_75" height="1" width="1" y="5" x="6" stroke-opacity="null" stroke-width="0" stroke="#fff" fill="#000000"/>
  <rect id="svg_76" height="1" width="1" y="4" x="5" stroke-opacity="null" stroke-width="0" stroke="#fff" fill="#000000"/>
  <rect id="svg_77" height="1" width="1" y="5" x="5" stroke-opacity="null" stroke-width="0" stroke="#fff" fill="#000000"/>
  <rect id="svg_78" height="1" width="1" y="5" x="13" stroke-opacity="null" stroke-width="0" stroke="#fff" fill="#000000"/>
  <rect id="svg_79" height="1" width="1" y="6" x="12" stroke-opacity="null" stroke-width="0" stroke="#fff" fill="#000000"/>
  <rect id="svg_80" height="1" width="1" y="5" x="11" stroke-opacity="null" stroke-width="0" stroke="#fff" fill="#000000"/>
  <rect id="svg_81" height="1" width="1" y="4" x="12" stroke-opacity="null" stroke-width="0" stroke="#fff" fill="#000000"/>
  <rect id="svg_82" height="1" width="1" y="5" x="12" stroke-opacity="null" stroke-width="0" stroke="#fff" fill="#000000"/>
  <rect id="svg_83" height="1" width="4" y="14" x="7" stroke-opacity="null" stroke-width="0" stroke="#fff" fill="#000000"/>
  <rect id="svg_84" height="1" width="4" y="10" x="7" stroke-opacity="null" stroke-width="0" stroke="#fff" fill="#000000"/>
  <rect id="svg_85" height="1" width="1" y="11" x="7" stroke-opacity="null" stroke-width="0" stroke="#fff" fill="#000000"/>
  <rect id="svg_86" height="1" width="1" y="11" x="10" stroke-opacity="null" stroke-width="0" stroke="#fff" fill="#000000"/>
  <rect id="svg_87" height="1" width="1" y="13" x="10" stroke-opacity="null" stroke-width="0" stroke="#fff" fill="#000000"/>
  <rect id="svg_88" height="1" width="1" y="13" x="7" stroke-opacity="null" stroke-width="0" stroke="#fff" fill="#000000"/>
  <rect id="svg_89" height="1" width="1" y="12" x="6" stroke-opacity="null" stroke-width="0" stroke="#fff" fill="#000000"/>
  <rect id="svg_90" height="1" width="1" y="12" x="11" stroke-opacity="null" stroke-width="0" stroke="#fff" fill="#000000"/>
  <rect id="svg_91" height="1" width="1" y="13" x="11" stroke-opacity="null" stroke-width="0" stroke="#fff" fill="#bcb300"/>
  <rect id="svg_92" height="1" width="1" y="11" x="11" stroke-opacity="null" stroke-width="0" stroke="#fff" fill="#bcb300"/>
  <rect id="svg_93" height="1" width="1" y="11" x="6" stroke-opacity="null" stroke-width="0" stroke="#fff" fill="#bcb300"/>
  <rect id="svg_94" height="1" width="1" y="13" x="6" stroke-opacity="null" stroke-width="0" stroke="#fff" fill="#bcb300"/>
  <rect id="svg_95" height="1" width="1" y="6" x="4" stroke-opacity="null" stroke-width="0" stroke="#fff" fill="#bcb300"/>
  <rect id="svg_96" height="1" width="1" y="6" x="6" stroke-opacity="null" stroke-width="0" stroke="#fff" fill="#bcb300"/>
  <rect id="svg_97" height="1" width="1" y="4" x="6" stroke-opacity="null" stroke-width="0" stroke="#fff" fill="#bcb300"/>
  <rect id="svg_98" height="1" width="1" y="4" x="4" stroke-opacity="null" stroke-width="0" stroke="#fff" fill="#bcb300"/>
  <rect id="svg_99" height="1" width="1" y="4" x="11" stroke-opacity="null" stroke-width="0" stroke="#fff" fill="#bcb300"/>
  <rect id="svg_100" height="1" width="1" y="4" x="13" stroke-opacity="null" stroke-width="0" stroke="#fff" fill="#bcb300"/>
  <rect id="svg_101" height="1" width="1" y="6" x="13" stroke-opacity="null" stroke-width="0" stroke="#fff" fill="#bcb300"/>
  <rect id="svg_102" height="1" width="1" y="6" x="11" stroke-opacity="null" stroke-width="0" stroke="#fff" fill="#bcb300"/>
 </g>
</svg>