<svg width="18" height="18" xmlns="http://www.w3.org/2000/svg">
 <!-- Created with Method Draw - http://github.com/duopixel/Method-Draw/ -->

 <g>
  <title>background</title>
  <rect x="-1" y="-1" width="3.125" height="3.125" id="canvas_background" fill="none"/>
 </g>
 <g>
  <title>Layer 1</title>
  <rect fill="#000000" stroke="#fff" stroke-width="0" stroke-opacity="null" x="1.03125" y="4.03125" width="1" height="2" id="svg_1"/>
  <rect fill="#000000" stroke="#fff" stroke-width="0" stroke-opacity="null" x="2.03125" y="3.03125" width="1" height="1" id="svg_2"/>
  <rect fill="#000000" stroke="#fff" stroke-width="0" stroke-opacity="null" x="3.03125" y="2.03125" width="1" height="1" id="svg_3"/>
  <rect fill="#000000" stroke="#fff" stroke-width="0" stroke-opacity="null" x="4.03125" y="1.03125" width="2" height="1" id="svg_4"/>
  <rect fill="#000000" stroke="#fff" stroke-width="0" stroke-opacity="null" x="6.03125" y="0.03125" width="6" height="1" id="svg_5"/>
  <rect fill="#000000" stroke="#fff" stroke-width="0" stroke-opacity="null" x="0.03125" y="6.03125" width="1" height="6" id="svg_6"/>
  <rect fill="#000000" stroke="#fff" stroke-width="0" stroke-opacity="null" x="1.03125" y="12.03125" width="1" height="2" id="svg_7"/>
  <rect fill="#000000" stroke="#fff" stroke-width="0" stroke-opacity="null" x="2.03125" y="14.03125" width="1" height="1" id="svg_8"/>
  <rect fill="#000000" stroke="#fff" stroke-width="0" stroke-opacity="null" x="3.03125" y="15.03125" width="1" height="1" id="svg_9"/>
  <rect fill="#000000" stroke="#fff" stroke-width="0" stroke-opacity="null" x="4.03125" y="16.03125" width="2" height="1" id="svg_10"/>
  <rect fill="#000000" stroke="#fff" stroke-width="0" stroke-opacity="null" x="6.03125" y="17.03125" width="6" height="1" id="svg_11"/>
  <rect fill="#000000" stroke="#fff" stroke-width="0" stroke-opacity="null" x="12.03125" y="16.03125" width="2" height="1" id="svg_12"/>
  <rect fill="#000000" stroke="#fff" stroke-width="0" stroke-opacity="null" x="14.03125" y="15.03125" width="1" height="1" id="svg_13"/>
  <rect fill="#000000" stroke="#fff" stroke-width="0" stroke-opacity="null" x="15.03125" y="14.03125" width="1" height="1" id="svg_14"/>
  <rect fill="#000000" stroke="#fff" stroke-width="0" stroke-opacity="null" x="16.03125" y="12.03125" width="1" height="2" id="svg_15"/>
  <rect fill="#000000" stroke="#fff" stroke-width="0" stroke-opacity="null" x="17" y="6.03125" width="1" height="6" id="svg_16"/>
  <rect fill="#000000" stroke="#fff" stroke-width="0" stroke-opacity="null" x="16.03125" y="4.03125" width="1" height="2" id="svg_17"/>
  <rect fill="#000000" stroke="#fff" stroke-width="0" stroke-opacity="null" x="15.03125" y="3.03125" width="1" height="1" id="svg_18"/>
  <rect fill="#000000" stroke="#fff" stroke-width="0" stroke-opacity="null" x="14.03125" y="2.03125" width="1" height="1" id="svg_19"/>
  <rect fill="#000000" stroke="#fff" stroke-width="0" stroke-opacity="null" x="12.03125" y="1.03125" width="2" height="1" id="svg_20"/>
  <rect fill="#000000" stroke="#fff" stroke-width="0" stroke-opacity="null" x="6.03125" y="11" width="6" height="1" id="svg_21"/>
  <rect fill="#000000" stroke="#fff" stroke-width="0" stroke-opacity="null" x="5.03125" y="12.03125" width="1" height="1" id="svg_22"/>
  <rect fill="#000000" stroke="#fff" stroke-width="0" stroke-opacity="null" x="12.03125" y="12.03125" width="1" height="1" id="svg_25"/>
  <rect stroke="#fff" fill="#fff200" stroke-width="0" stroke-opacity="null" x="6" y="1" width="6" height="16" id="svg_28"/>
  <rect stroke="#fff" fill="#fff200" stroke-width="0" stroke-opacity="null" x="4" y="2" width="10" height="14" id="svg_35"/>
  <rect stroke="#fff" fill="#fff200" stroke-width="0" stroke-opacity="null" x="2" y="4" width="14" height="10" id="svg_38"/>
  <rect stroke="#fff" fill="#fff200" stroke-width="0" stroke-opacity="null" x="3" y="3" width="12" height="12" id="svg_45"/>
  <rect stroke="#fff" fill="#fff200" stroke-width="0" stroke-opacity="null" x="1" y="6" width="16" height="6" id="svg_50"/>
  <rect fill="#000000" stroke="#fff" stroke-width="0" stroke-opacity="null" x="13" y="13" width="1" height="1" id="svg_71"/>
  <rect fill="#000000" stroke="#fff" stroke-width="0" stroke-opacity="null" x="4" y="13" width="1" height="1" id="svg_72"/>
  <rect fill="#000000" stroke="#fff" stroke-width="0" stroke-opacity="null" x="4" y="6" width="1" height="1" id="svg_73"/>
  <rect fill="#000000" stroke="#fff" stroke-width="0" stroke-opacity="null" x="6" y="6" width="1" height="1" id="svg_74"/>
  <rect fill="#000000" stroke="#fff" stroke-width="0" stroke-opacity="null" x="6" y="4" width="1" height="1" id="svg_75"/>
  <rect fill="#000000" stroke="#fff" stroke-width="0" stroke-opacity="null" x="4" y="4" width="1" height="1" id="svg_76"/>
  <rect fill="#000000" stroke="#fff" stroke-width="0" stroke-opacity="null" x="5" y="5" width="1" height="1" id="svg_77"/>
  <rect fill="#000000" stroke="#fff" stroke-width="0" stroke-opacity="null" x="13" y="6" width="1" height="1" id="svg_78"/>
  <rect fill="#000000" stroke="#fff" stroke-width="0" stroke-opacity="null" x="11" y="6" width="1" height="1" id="svg_79"/>
  <rect fill="#000000" stroke="#fff" stroke-width="0" stroke-opacity="null" x="11" y="4" width="1" height="1" id="svg_80"/>
  <rect fill="#000000" stroke="#fff" stroke-width="0" stroke-opacity="null" x="13" y="4" width="1" height="1" id="svg_81"/>
  <rect fill="#000000" stroke="#fff" stroke-width="0" stroke-opacity="null" x="12" y="5" width="1" height="1" id="svg_82"/>
  <rect fill="#000000" stroke="#fff" stroke-width="0" stroke-opacity="null" x="6.03125" y="11" width="6" height="1" id="svg_24"/>
  <rect fill="#000000" stroke="#fff" stroke-width="0" stroke-opacity="null" x="5.03125" y="12.03125" width="1" height="1" id="svg_26"/>
  <rect fill="#000000" stroke="#fff" stroke-width="0" stroke-opacity="null" x="12.03125" y="12.03125" width="1" height="1" id="svg_27"/>
 </g>
</svg>