<svg width="18" height="18" xmlns="http://www.w3.org/2000/svg">
 <!-- Created with Method Draw - http://github.com/duopixel/Method-Draw/ -->

 <g>
  <title>background</title>
  <rect fill="none" id="canvas_background" height="20" width="20" y="-1" x="-1"/>
 </g>
 <g>
  <title>Layer 1</title>
  <rect id="svg_1" height="2" width="1" y="4.03125" x="1.03125" stroke-opacity="null" stroke-width="0" stroke="#fff" fill="#000000"/>
  <rect id="svg_2" height="1" width="1" y="3.03125" x="2.03125" stroke-opacity="null" stroke-width="0" stroke="#fff" fill="#000000"/>
  <rect id="svg_3" height="1" width="1" y="2.03125" x="3.03125" stroke-opacity="null" stroke-width="0" stroke="#fff" fill="#000000"/>
  <rect id="svg_4" height="1" width="2" y="1.03125" x="4.03125" stroke-opacity="null" stroke-width="0" stroke="#fff" fill="#000000"/>
  <rect id="svg_5" height="1" width="6" y="0.03125" x="6.03125" stroke-opacity="null" stroke-width="0" stroke="#fff" fill="#000000"/>
  <rect id="svg_6" height="6" width="1" y="6.03125" x="0.03125" stroke-opacity="null" stroke-width="0" stroke="#fff" fill="#000000"/>
  <rect id="svg_7" height="2" width="1" y="12.03125" x="1.03125" stroke-opacity="null" stroke-width="0" stroke="#fff" fill="#000000"/>
  <rect id="svg_8" height="1" width="1" y="14.03125" x="2.03125" stroke-opacity="null" stroke-width="0" stroke="#fff" fill="#000000"/>
  <rect id="svg_9" height="1" width="1" y="15.03125" x="3.03125" stroke-opacity="null" stroke-width="0" stroke="#fff" fill="#000000"/>
  <rect id="svg_10" height="1" width="2" y="16.03125" x="4.03125" stroke-opacity="null" stroke-width="0" stroke="#fff" fill="#000000"/>
  <rect id="svg_11" height="1" width="6" y="17.03125" x="6.03125" stroke-opacity="null" stroke-width="0" stroke="#fff" fill="#000000"/>
  <rect id="svg_12" height="1" width="2" y="16.03125" x="12.03125" stroke-opacity="null" stroke-width="0" stroke="#fff" fill="#000000"/>
  <rect id="svg_13" height="1" width="1" y="15.03125" x="14.03125" stroke-opacity="null" stroke-width="0" stroke="#fff" fill="#000000"/>
  <rect id="svg_14" height="1" width="1" y="14.03125" x="15.03125" stroke-opacity="null" stroke-width="0" stroke="#fff" fill="#000000"/>
  <rect id="svg_15" height="2" width="1" y="12.03125" x="16.03125" stroke-opacity="null" stroke-width="0" stroke="#fff" fill="#000000"/>
  <rect id="svg_16" height="6" width="1" y="6.03125" x="17" stroke-opacity="null" stroke-width="0" stroke="#fff" fill="#000000"/>
  <rect id="svg_17" height="2" width="1" y="4.03125" x="16.03125" stroke-opacity="null" stroke-width="0" stroke="#fff" fill="#000000"/>
  <rect id="svg_18" height="1" width="1" y="3.03125" x="15.03125" stroke-opacity="null" stroke-width="0" stroke="#fff" fill="#000000"/>
  <rect id="svg_19" height="1" width="1" y="2.03125" x="14.03125" stroke-opacity="null" stroke-width="0" stroke="#fff" fill="#000000"/>
  <rect id="svg_20" height="1" width="2" y="1.03125" x="12.03125" stroke-opacity="null" stroke-width="0" stroke="#fff" fill="#000000"/>
  <rect id="svg_28" height="16" width="6" y="1" x="6" stroke-opacity="null" stroke-width="0" stroke="#fff" fill="#fff200"/>
  <rect id="svg_35" height="14" width="10" y="2" x="4" stroke-opacity="null" stroke-width="0" stroke="#fff" fill="#fff200"/>
  <rect id="svg_38" height="10" width="14" y="4" x="2" stroke-opacity="null" stroke-width="0" stroke="#fff" fill="#fff200"/>
  <rect id="svg_43" height="2" width="1" y="5" x="4" stroke-opacity="null" stroke-width="0" stroke="#fff" fill="#fff200"/>
  <rect id="svg_45" height="12" width="12" y="3" x="3" stroke-opacity="null" stroke-width="0" stroke="#fff" fill="#fff200"/>
  <rect id="svg_50" height="6" width="16" y="6" x="1" stroke-opacity="null" stroke-width="0" stroke="#fff" fill="#fff200"/>
  <rect id="svg_21" height="1" width="6" y="13.03125" x="6" stroke-opacity="null" stroke-width="0" stroke="#fff" fill="#000000"/>
  <rect id="svg_24" height="10" width="2" y="4" x="8" stroke-opacity="null" stroke-width="0" stroke="#fff" fill="#000000"/>
  <rect id="svg_25" height="2" width="2" y="5" x="7" stroke-opacity="null" stroke-width="0" stroke="#fff" fill="#000000"/>
  <rect id="svg_26" height="1" width="3" y="6" x="6" stroke-opacity="null" stroke-width="0" stroke="#fff" fill="#000000"/>
 </g>
</svg>